<svg width="120" height="120" viewBox="0 0 120 120" fill="none" xmlns="http://www.w3.org/2000/svg">
<rect x="6" y="54" width="24" height="58" fill="url(#paint0_linear_20_1163)"/>
<rect x="34" y="79" width="24" height="33" fill="url(#paint1_linear_20_1163)"/>
<rect x="61" y="10" width="25" height="102" fill="url(#paint2_linear_20_1163)"/>
<rect x="89" y="45" width="24" height="67" fill="url(#paint3_linear_20_1163)"/>
<path d="M2 115H118" stroke="url(#paint4_linear_20_1163)"/>
<path d="M2 47.6775L37.0733 82.7508L58.3196 66.2259L71.4721 78.7039H117M117 78.7039L111.267 85.4488M117 78.7039L111.267 72.9707" stroke="url(#paint5_linear_20_1163)"/>
<path d="M3.01172 87.8092L49.2141 53.4104H83.9501L117 25.4192M117 25.4192V34.5248M117 25.4192H107.894" stroke="url(#paint6_linear_20_1163)"/>
<path d="M2.67432 18H28.6421L41.7946 32.1642L55.2843 18H68.4368L117 66.9003M117 66.9003V57.1202M117 66.9003H107.557" stroke="url(#paint7_linear_20_1163)"/>
<defs>
<linearGradient id="paint0_linear_20_1163" x1="18" y1="54" x2="18" y2="112" gradientUnits="userSpaceOnUse">
<stop stop-color="white" stop-opacity="0"/>
<stop offset="1" stop-color="white"/>
</linearGradient>
<linearGradient id="paint1_linear_20_1163" x1="46" y1="79" x2="46" y2="112" gradientUnits="userSpaceOnUse">
<stop stop-color="#FDFDFD" stop-opacity="0"/>
<stop offset="1" stop-color="white" stop-opacity="0.78"/>
</linearGradient>
<linearGradient id="paint2_linear_20_1163" x1="73.5" y1="10" x2="73.5" y2="112" gradientUnits="userSpaceOnUse">
<stop stop-color="white" stop-opacity="0"/>
<stop offset="1" stop-color="white"/>
</linearGradient>
<linearGradient id="paint3_linear_20_1163" x1="101" y1="45" x2="101" y2="112" gradientUnits="userSpaceOnUse">
<stop stop-color="#FDFDFD" stop-opacity="0"/>
<stop offset="1" stop-color="white" stop-opacity="0.78"/>
</linearGradient>
<linearGradient id="paint4_linear_20_1163" x1="2" y1="115" x2="118" y2="115" gradientUnits="userSpaceOnUse">
<stop stop-color="white" stop-opacity="0"/>
<stop offset="1" stop-color="white"/>
</linearGradient>
<linearGradient id="paint5_linear_20_1163" x1="114.977" y1="80.0529" x2="6.72141" y2="59.1438" gradientUnits="userSpaceOnUse">
<stop offset="0.422975" stop-color="white"/>
<stop offset="1" stop-color="white" stop-opacity="0"/>
</linearGradient>
<linearGradient id="paint6_linear_20_1163" x1="115.012" y1="92.1935" x2="5.62021" y2="82.1296" gradientUnits="userSpaceOnUse">
<stop offset="0.422975" stop-color="white"/>
<stop offset="1" stop-color="white" stop-opacity="0"/>
</linearGradient>
<linearGradient id="paint7_linear_20_1163" x1="115.006" y1="70.3366" x2="5.87439" y2="57.4891" gradientUnits="userSpaceOnUse">
<stop offset="0.422975" stop-color="white"/>
<stop offset="1" stop-color="white" stop-opacity="0"/>
</linearGradient>
</defs>
</svg>
