<svg width="177" height="28" viewBox="0 0 177 28" fill="none" xmlns="http://www.w3.org/2000/svg">
<path d="M5.524 1.872V27H0.484V1.872H5.524ZM21.5555 6.768C23.9315 6.768 25.8515 7.524 27.3155 9.036C28.7795 10.524 29.5115 12.612 29.5115 15.3V27H24.4715V15.984C24.4715 14.4 24.0755 13.188 23.2835 12.348C22.4915 11.484 21.4115 11.052 20.0435 11.052C18.6515 11.052 17.5475 11.484 16.7315 12.348C15.9395 13.188 15.5435 14.4 15.5435 15.984V27H10.5035V7.056H15.5435V9.54C16.2155 8.676 17.0675 8.004 18.0995 7.524C19.1555 7.02 20.3075 6.768 21.5555 6.768ZM33.0083 17.028C33.0083 14.964 33.4283 13.164 34.2683 11.628C35.1083 10.068 36.2723 8.868 37.7603 8.028C39.2483 7.164 40.9523 6.732 42.8723 6.732C45.3443 6.732 47.3843 7.356 48.9923 8.604C50.6243 9.828 51.7163 11.556 52.2683 13.788H46.8323C46.5443 12.924 46.0523 12.252 45.3563 11.772C44.6843 11.268 43.8443 11.016 42.8363 11.016C41.3963 11.016 40.2563 11.544 39.4163 12.6C38.5763 13.632 38.1563 15.108 38.1563 17.028C38.1563 18.924 38.5763 20.4 39.4163 21.456C40.2563 22.488 41.3963 23.004 42.8363 23.004C44.8763 23.004 46.2083 22.092 46.8323 20.268H52.2683C51.7163 22.428 50.6243 24.144 48.9923 25.416C47.3603 26.688 45.3203 27.324 42.8723 27.324C40.9523 27.324 39.2483 26.904 37.7603 26.064C36.2723 25.2 35.1083 24 34.2683 22.464C33.4283 20.904 33.0083 19.092 33.0083 17.028ZM74.7886 7.056V27H69.7126V24.48C69.0646 25.344 68.2126 26.028 67.1566 26.532C66.1246 27.012 64.9966 27.252 63.7726 27.252C62.2126 27.252 60.8326 26.928 59.6326 26.28C58.4326 25.608 57.4846 24.636 56.7886 23.364C56.1166 22.068 55.7806 20.532 55.7806 18.756V7.056H60.8206V18.036C60.8206 19.62 61.2166 20.844 62.0086 21.708C62.8006 22.548 63.8806 22.968 65.2486 22.968C66.6406 22.968 67.7326 22.548 68.5246 21.708C69.3166 20.844 69.7126 19.62 69.7126 18.036V7.056H74.7886ZM84.8013 9.972C85.4493 9.012 86.3373 8.232 87.4653 7.632C88.6173 7.032 89.9253 6.732 91.3893 6.732C93.0933 6.732 94.6293 7.152 95.9973 7.992C97.3893 8.832 98.4813 10.032 99.2733 11.592C100.089 13.128 100.497 14.916 100.497 16.956C100.497 18.996 100.089 20.808 99.2733 22.392C98.4813 23.952 97.3893 25.164 95.9973 26.028C94.6293 26.892 93.0933 27.324 91.3893 27.324C89.9013 27.324 88.5933 27.036 87.4653 26.46C86.3613 25.86 85.4733 25.092 84.8013 24.156V27H79.7613V0.36H84.8013V9.972ZM95.3493 16.956C95.3493 15.756 95.0973 14.724 94.5933 13.86C94.1133 12.972 93.4653 12.3 92.6493 11.844C91.8573 11.388 90.9933 11.16 90.0573 11.16C89.1453 11.16 88.2813 11.4 87.4653 11.88C86.6733 12.336 86.0253 13.008 85.5213 13.896C85.0413 14.784 84.8013 15.828 84.8013 17.028C84.8013 18.228 85.0413 19.272 85.5213 20.16C86.0253 21.048 86.6733 21.732 87.4653 22.212C88.2813 22.668 89.1453 22.896 90.0573 22.896C90.9933 22.896 91.8573 22.656 92.6493 22.176C93.4653 21.696 94.1133 21.012 94.5933 20.124C95.0973 19.236 95.3493 18.18 95.3493 16.956ZM102.864 16.956C102.864 14.94 103.26 13.152 104.052 11.592C104.868 10.032 105.96 8.832 107.328 7.992C108.72 7.152 110.268 6.732 111.972 6.732C113.46 6.732 114.756 7.032 115.86 7.632C116.988 8.232 117.888 8.988 118.56 9.9V7.056H123.636V27H118.56V24.084C117.912 25.02 117.012 25.8 115.86 26.424C114.732 27.024 113.424 27.324 111.936 27.324C110.256 27.324 108.72 26.892 107.328 26.028C105.96 25.164 104.868 23.952 104.052 22.392C103.26 20.808 102.864 18.996 102.864 16.956ZM118.56 17.028C118.56 15.804 118.32 14.76 117.84 13.896C117.36 13.008 116.712 12.336 115.896 11.88C115.08 11.4 114.204 11.16 113.268 11.16C112.332 11.16 111.468 11.388 110.676 11.844C109.884 12.3 109.236 12.972 108.732 13.86C108.252 14.724 108.012 15.756 108.012 16.956C108.012 18.156 108.252 19.212 108.732 20.124C109.236 21.012 109.884 21.696 110.676 22.176C111.492 22.656 112.356 22.896 113.268 22.896C114.204 22.896 115.08 22.668 115.896 22.212C116.712 21.732 117.36 21.06 117.84 20.196C118.32 19.308 118.56 18.252 118.56 17.028ZM134.426 11.196V20.844C134.426 21.516 134.582 22.008 134.894 22.32C135.23 22.608 135.782 22.752 136.55 22.752H138.89V27H135.722C131.474 27 129.35 24.936 129.35 20.808V11.196H126.974V7.056H129.35V2.124H134.426V7.056H138.89V11.196H134.426ZM151.371 27.324C149.451 27.324 147.723 26.904 146.187 26.064C144.651 25.2 143.439 23.988 142.551 22.428C141.687 20.868 141.255 19.068 141.255 17.028C141.255 14.988 141.699 13.188 142.587 11.628C143.499 10.068 144.735 8.868 146.295 8.028C147.855 7.164 149.595 6.732 151.515 6.732C153.435 6.732 155.175 7.164 156.735 8.028C158.295 8.868 159.519 10.068 160.407 11.628C161.319 13.188 161.775 14.988 161.775 17.028C161.775 19.068 161.307 20.868 160.371 22.428C159.459 23.988 158.211 25.2 156.627 26.064C155.067 26.904 153.315 27.324 151.371 27.324ZM151.371 22.932C152.283 22.932 153.135 22.716 153.927 22.284C154.743 21.828 155.391 21.156 155.871 20.268C156.351 19.38 156.591 18.3 156.591 17.028C156.591 15.132 156.087 13.68 155.079 12.672C154.095 11.64 152.883 11.124 151.443 11.124C150.003 11.124 148.791 11.64 147.807 12.672C146.847 13.68 146.367 15.132 146.367 17.028C146.367 18.924 146.835 20.388 147.771 21.42C148.731 22.428 149.931 22.932 151.371 22.932ZM170.512 10.152C171.16 9.096 172 8.268 173.032 7.668C174.088 7.068 175.288 6.768 176.632 6.768V12.06H175.3C173.716 12.06 172.516 12.432 171.7 13.176C170.908 13.92 170.512 15.216 170.512 17.064V27H165.472V7.056H170.512V10.152Z" fill="url(#paint0_linear_301_983)"/>
<defs>
<linearGradient id="paint0_linear_301_983" x1="-2" y1="-13" x2="179.914" y2="-5.51382" gradientUnits="userSpaceOnUse">
<stop stop-color="#8D5BDF"/>
<stop offset="1" stop-color="#1860ED"/>
</linearGradient>
</defs>
</svg>
