<svg width="161" height="106" viewBox="0 0 161 106" fill="none" xmlns="http://www.w3.org/2000/svg">
<path fill-rule="evenodd" clip-rule="evenodd" d="M122.049 19.6933C127.226 19.6933 131.423 15.4966 131.423 10.3197C131.423 5.14285 127.226 0.946167 122.049 0.946167C116.872 0.946167 112.676 5.14285 112.676 10.3197C112.676 15.4966 116.872 19.6933 122.049 19.6933ZM33.313 29.6917C33.313 34.8686 29.1163 39.0653 23.9394 39.0653C18.7625 39.0653 14.5658 34.8686 14.5658 29.6917C14.5658 24.5149 18.7625 20.3182 23.9394 20.3182C29.1163 20.3182 33.313 24.5149 33.313 29.6917ZM92.0539 21.8876C89.0466 22.735 86.0589 23.5714 85.4143 23.7464L84.2426 24.0645V55.2978V86.5309H91.1166H97.9905V53.4109C97.9905 35.195 97.8852 20.3035 97.7562 20.3191C97.6271 20.3344 95.0613 21.0403 92.0539 21.8876ZM23.9394 42.4307L17.5341 44.2073L17.3779 70.6027C17.236 94.5631 17.1726 97.1061 16.6908 98.1697C16.2252 99.197 16.0262 99.3414 15.0742 99.3414C14.1237 99.3414 13.7472 99.0702 12.0559 97.167C9.72654 94.5462 8.26489 93.851 5.65279 94.1206C0.0586438 94.6977 -1.37707 100.263 3.32346 103.15C5.6156 104.558 8.24333 105.083 12.8473 105.053C19.9022 105.007 23.855 103.781 26.7217 100.75C29.0964 98.2388 30.119 95.7401 30.7924 90.8046C31.3032 87.0586 31.2504 40.5916 30.7352 40.6276C30.5205 40.6423 27.4623 41.454 23.9394 42.4307ZM112.988 42.2148C109.981 43.0525 106.993 43.8808 106.349 44.0558L105.177 44.3739V65.4525V86.5309H112.051H118.925V63.7403C118.925 51.2053 118.82 40.8916 118.69 40.8207C118.561 40.7501 115.996 41.3772 112.988 42.2148ZM137.542 41.2362C132.747 41.9936 128.072 43.8708 125.583 46.0383C121.658 49.4562 121.797 54.8063 125.865 56.8816C127.599 57.7662 131.559 57.6472 132.867 56.6711C134.461 55.4809 134.871 54.5998 135.316 51.4128C135.784 48.063 136.303 47.1522 138.209 46.3405C139.505 45.788 142.09 45.7915 143.421 46.3476C144.695 46.8797 145.931 48.4557 146.388 50.1302C146.576 50.8176 146.725 52.8563 146.72 54.6607L146.711 57.9415L141.059 59.7837C129.49 63.5553 124.038 67.3525 122.476 72.7264C120.964 77.9269 123.51 83.6172 128.379 85.92C131.04 87.1783 133.269 87.5748 136.578 87.3782C140.184 87.1642 142.17 86.5346 144.698 84.8033L146.733 83.4104V84.9708V86.5309H153.617H160.5L160.413 68.1743L160.325 49.8177L159.465 48.1877C157.789 45.0075 154.922 43.0322 150.215 41.8149C147.44 41.0972 140.444 40.7776 137.542 41.2362ZM37.4429 59.2694L37.531 77.0011L38.5443 79.0723C40.394 82.8524 44.8408 86.2168 49.1852 87.123C53.8232 88.09 58.4319 86.9655 62.7615 83.81L64.2457 82.7283V84.6296V86.5309H71.1196H77.9936V64.028V41.5256L71.1977 41.6096L64.4019 41.694L64.321 58.0146L64.2401 74.3349L62.4463 76.1671C61.4595 77.1748 60.1604 78.2559 59.5589 78.5696C56.5037 80.1634 52.0866 78.1474 51.1364 74.7261C50.934 73.9968 50.8131 67.6022 50.8121 57.5509L50.8102 41.5378H44.0825H37.3551L37.4429 59.2694ZM146.729 70.049L146.725 76.3762L144.36 77.9147C142.448 79.1589 141.67 79.4804 140.298 79.5941C138.686 79.7278 138.549 79.68 137.574 78.6467C135.784 76.7483 135.271 73.4769 136.413 71.2382C137.306 69.4882 140.311 66.9351 143.494 65.2216C145.018 64.4014 146.37 63.7287 146.499 63.7262C146.628 63.7237 146.731 66.5692 146.729 70.049ZM111.113 39.0653C116.29 39.0653 120.487 34.8686 120.487 29.6917C120.487 24.5149 116.29 20.3182 111.113 20.3182C105.936 20.3182 101.74 24.5149 101.74 29.6917C101.74 34.8686 105.936 39.0653 111.113 39.0653ZM142.983 29.6917C142.983 34.8686 138.787 39.0653 133.61 39.0653C128.433 39.0653 124.236 34.8686 124.236 29.6917C124.236 24.5149 128.433 20.3182 133.61 20.3182C138.787 20.3182 142.983 24.5149 142.983 29.6917Z" fill="white"/>
</svg>
