<svg width="173" height="72" viewBox="0 0 173 72" fill="none" xmlns="http://www.w3.org/2000/svg">
<path d="M0.5 71.5V0.5H14.6964V30.0514H41.4585V0.5H55.7508V71.5H41.4585V42.8122H14.6964V71.5H0.5Z" fill="white"/>
<path d="M67.9448 71.5V16.7149C67.9448 13.5806 68.4244 10.9581 69.3836 8.84729C70.3428 6.73648 71.6218 5.07342 73.2205 3.8581C74.8192 2.64279 76.5777 1.77928 78.4962 1.26756C80.4146 0.755854 82.3011 0.5 84.1555 0.5C86.4577 0.5 89.3033 0.531982 92.6926 0.595945C96.1457 0.595945 99.7907 0.691889 103.628 0.883779C107.528 1.07567 111.269 1.36351 114.85 1.74729V13.6446H88.0883C86.1059 13.6446 84.6032 14.1883 83.58 15.2757C82.6208 16.2991 82.1412 17.6743 82.1412 19.4013V31.4905L110.246 32.2581V43.4838L82.1412 44.2514V71.5H67.9448Z" fill="white"/>
<path d="M138.736 71.5V13.2608H119.264V0.5H172.5V13.2608H152.932V71.5H138.736Z" fill="white"/>
</svg>
