<svg width="239" height="124" viewBox="0 0 239 124" fill="none" xmlns="http://www.w3.org/2000/svg">
<path fill-rule="evenodd" clip-rule="evenodd" d="M59.3698 2.64228C57.2499 6.74944 56.2085 7.06662 53.6433 4.38474C50.4289 1.02249 48.7037 1.25412 47.5221 5.20633C46.4268 8.86961 45.3242 9.17064 42.005 6.71151C38.996 4.48239 37.3707 5.1805 36.6829 8.99712C35.9032 13.3262 35.8235 13.3795 32.2813 11.9591C27.8113 10.1666 26.6764 10.8421 26.6764 15.2939V18.9749L22.448 18.7489C17.8451 18.5028 17.709 18.7134 18.6883 24.5759C19.0033 26.4637 18.7657 26.6194 15.0052 26.9971C10.395 27.4596 9.71122 28.6452 11.7602 32.6159C13.2856 35.5706 12.8217 36.6819 10.0648 36.6819C7.60828 36.6819 4.93028 38.0249 4.93028 39.2573C4.93028 39.7545 5.84443 41.3621 6.96154 42.8302L8.99279 45.4992L7.16289 46.6557C6.15612 47.2925 4.51791 48.0568 3.52081 48.3546C0.991816 49.1108 1.25035 51.486 4.12487 53.9104C6.90113 56.2509 7.15645 57.3614 5.07204 58.024C2.8338 58.7359 0.103446 61.5848 0.548034 62.7446C0.765495 63.3119 2.20316 64.4564 3.7423 65.2868C5.28145 66.1181 6.54111 67.0357 6.54111 67.3263C6.54111 67.6176 5.4538 68.8993 4.12487 70.1752C0.876642 73.2929 1.01115 75.0653 4.58396 76.2468C8.2365 77.455 8.73022 78.7971 6.61601 81.772C5.68898 83.077 4.93028 84.5297 4.93028 85.0003C4.93028 86.1899 7.64775 87.5272 10.0648 87.5272C12.8217 87.5272 13.2856 88.6385 11.7602 91.5932C9.71122 95.5639 10.395 96.7495 15.0052 97.212C18.7657 97.5897 19.0033 97.7455 18.6883 99.6332C17.709 105.496 17.8451 105.706 22.448 105.46L26.6764 105.234V108.915C26.6764 113.367 27.8113 114.043 32.2813 112.25C35.8235 110.83 35.9032 110.883 36.6829 115.212C37.3707 119.029 38.996 119.727 42.005 117.498C45.3242 115.038 46.4268 115.34 47.5221 119.003C48.7053 122.96 50.4289 123.187 53.6578 119.81C54.9311 118.478 56.2101 117.389 56.5009 117.389C56.7908 117.389 57.7066 118.651 58.5361 120.193C60.4893 123.827 62.1814 124.458 63.7254 122.125C64.3899 121.122 65.5255 119.568 66.2488 118.671C67.5495 117.06 67.5898 117.071 69.7789 119.678C72.622 123.064 74.9303 122.839 76.1972 119.051C77.3643 115.561 78.3992 115.215 81.3559 117.326C85.2267 120.087 87.0631 119.247 87.0945 114.7C87.1186 111.314 88.156 110.701 91.314 112.211C95.4369 114.181 96.7474 113.378 96.7474 108.882V105.167L100.976 105.426L105.204 105.686L104.979 101.449L104.753 97.212H108.241C113.131 97.212 113.862 96.2007 112.042 91.9475C110.406 88.1236 110.596 87.5272 113.445 87.5272C115.952 87.5272 118.493 86.1463 118.493 84.7832C118.493 84.1924 117.769 82.7865 116.883 81.6574C114.611 78.7632 114.843 78.0014 118.431 76.5624C122.558 74.9079 122.91 73.6763 120.044 70.9242C117.003 68.0042 117.076 67.0543 120.507 64.9293C122.057 63.9689 123.326 62.6978 123.326 62.1046C123.326 61.5114 122.057 60.2402 120.507 59.2798C117.076 57.1548 117.003 56.2049 120.044 53.2849C122.91 50.5328 122.558 49.3013 118.431 47.6468C114.843 46.2078 114.611 45.4459 116.883 42.5518C117.769 41.4227 118.493 40.0168 118.493 39.426C118.493 38.0628 115.952 36.6819 113.445 36.6819C110.596 36.6819 110.406 36.0855 112.042 32.2616C113.862 28.0084 113.131 26.9971 108.241 26.9971H104.753L104.979 22.76L105.204 18.5229L100.976 18.7489L96.7474 18.9749V15.2939C96.7474 10.8332 95.4273 10.0334 91.314 11.9986C88.156 13.5078 87.1186 12.8953 87.0945 9.50961C87.0631 4.96179 85.2267 4.12163 81.3559 6.88342C78.3992 8.99309 77.3651 8.64767 76.1932 5.15791C74.9593 1.48172 73.0022 1.25654 69.7491 4.4154L67.0832 7.00447L64.9915 3.6842C62.5366 -0.213128 60.9911 -0.499637 59.3698 2.64228ZM63.4033 12.2803C65.9395 13.9775 64.8337 18.1194 61.8448 18.1194C58.4089 18.1194 57.0332 15.2559 59.3528 12.9308C60.7253 11.5563 62.0123 11.3497 63.4033 12.2803ZM56.8794 21.3477C58.6094 23.1232 60.685 24.5759 61.4904 24.5759C62.2966 24.5759 64.5735 23.0821 66.5508 21.2557C69.6943 18.3518 70.4796 17.9983 72.8073 18.4358C80.9137 19.9595 93.9316 29.1108 98.7367 36.6626L100.522 39.4671L98.0803 45.0068C95.1615 51.6288 95.4071 52.3068 101.859 55.4325C106.382 57.6229 106.412 57.6617 106.412 61.2321C106.412 64.6977 106.318 64.8365 103.795 65.0802C101.449 65.3062 101.15 65.6258 100.913 68.1576C100.568 71.837 98.715 73.8103 95.6157 73.7949C92.1637 73.7772 91.4147 73.1138 90.3443 69.1204C89.8313 67.2093 88.1705 64.2675 86.6523 62.584L83.893 59.5236L86.9793 57.0386C95.7035 50.0139 94.0315 38.6673 83.5523 33.7781C79.4865 31.8815 79.0879 31.8549 54.1112 31.8476L28.7914 31.8395L31.1376 29.3853C35.5859 24.7325 47.7742 18.1888 52.0848 18.1388C52.9917 18.1283 55.1494 19.5721 56.8794 21.3477ZM215.143 40.6664V45.4572L212.525 45.7106C209.955 45.9584 209.908 46.0359 209.908 49.9986C209.908 53.9613 209.955 54.0387 212.525 54.2865L215.143 54.5399L215.162 62.3572C215.186 72.0089 216.036 75.8755 218.728 78.5744C220.663 80.5154 221.426 80.6873 229.254 80.9423L237.695 81.2175V77.1087V73H234.017C227.527 73 227.224 72.5488 227.224 62.8834V54.4374H232.862H238.5V49.9986V45.5597H232.862H227.224V40.7173V35.8749H221.184H215.143V40.6664ZM20.5787 46.0205C22.0759 47.5217 22.0888 47.629 21.0104 49.6483C19.6025 52.2834 14.5952 51.2156 14.5952 48.2803C14.5952 46.9535 16.856 44.7526 18.2196 44.7526C18.8204 44.7526 19.882 45.3232 20.5787 46.0205ZM107.057 45.7211C109.1 47.7686 107.381 52.0162 104.509 52.0162C103.667 52.0162 101.58 49.428 101.58 48.3844C101.58 47.0181 103.776 44.7526 105.1 44.7526C105.645 44.7526 106.525 45.1884 107.057 45.7211ZM181.785 45.9495C176.948 47.6766 174.706 50.3876 174.325 54.9709C174.134 57.2581 174.435 59.7027 175.051 60.8698C176.595 63.7938 180.907 66.3901 185.2 66.9801C192.939 68.0438 195.008 68.8767 195.008 70.9274C195.008 71.9726 194.434 73.0476 193.734 73.3172C191.386 74.2203 183.223 73.8191 179.229 72.6053C177.054 71.9443 175.184 71.3996 175.074 71.3947C174.963 71.3899 174.872 73.3535 174.872 75.7577V80.1296L178.939 81.0037C184.256 82.1465 194.414 82.1206 198.297 80.9552C204.94 78.961 208.09 71.8136 205.105 65.5096C203.419 61.9512 200.468 60.4832 192.227 59.1055C185.131 57.9199 182.833 56.1185 185.698 53.9863C187.712 52.4875 192.649 52.5061 198.502 54.0339C201.053 54.6997 203.304 55.2445 203.504 55.2445C203.704 55.2445 203.867 53.2841 203.867 50.8887V46.5322L198.767 45.6428C191.979 44.458 185.642 44.5726 181.785 45.9495ZM31.5089 59.6834V73.807H25.1292C17.8878 73.807 18.4612 74.4721 17.3651 64.8147C16.6337 58.3808 17.266 57.0822 22.1895 54.9007C26.8673 52.8273 27.8266 51.415 26.6539 48.3247C25.5795 45.4935 25.5303 45.5597 28.69 45.5597H31.5089V59.6834ZM69.3633 46.6008C70.4877 47.169 71.4993 48.4797 71.6547 49.57C72.1227 52.858 69.9722 53.6304 60.3499 53.6304H51.6442V49.595V45.5597L59.497 45.5718C64.1877 45.5791 68.1608 45.9931 69.3633 46.6008ZM129.905 59.0781C130.207 74.1977 131.107 77.4808 135.745 80.4024C139.499 82.7671 147.122 82.1578 151.016 79.1813L153.932 76.953V79.0118C153.932 81.0359 154.034 81.0706 159.972 81.0706H166.013V63.3152V45.5597H159.972H153.932V56.4954C153.932 70.5941 152.873 73 146.663 73C142.507 73 141.85 70.8846 141.85 57.4857V45.5597H135.742H129.633L129.905 59.0781ZM66.4517 67.4554C68.7141 68.4877 69.5502 70.2664 71.4703 78.1224C72.2177 81.182 73.698 84.6936 74.7878 85.9913L76.7554 88.3342H87.1782H97.6011L95.8284 90.7361C94.3641 92.7215 93.6956 93.0378 91.9785 92.5592C90.8364 92.2405 88.2704 91.9773 86.277 91.9733L82.6526 91.966L81.3583 97.212C80.0834 102.38 80.006 102.481 76.1231 104.042C70.3822 106.349 53.0158 106.335 47.2177 104.018C43.2261 102.422 43.1858 102.371 42.1122 97.3799C40.8082 91.3188 39.8111 90.6191 34.0927 91.7522C30.1236 92.5391 29.7016 92.4664 27.7887 90.6667L25.7381 88.7378L44.53 88.3342L63.3227 87.9307L63.5611 82.0052C63.7085 78.3307 63.4411 75.6472 62.858 74.9434C62.229 74.1839 60.2138 73.807 56.7812 73.807H51.6442V70.1752V66.5434H58.0497C61.5726 66.5434 65.354 66.9534 66.4517 67.4554ZM36.9857 97.3734C39.4132 99.8059 37.0034 103.405 33.5329 102.533C31.9712 102.14 31.5089 101.505 31.5089 99.7526C31.5089 98.5033 31.7505 97.2386 32.0461 96.9432C32.9208 96.066 35.9435 96.329 36.9857 97.3734ZM91.1006 97.605C91.6813 98.3064 91.8786 99.6687 91.5742 100.883C91.1312 102.652 90.6697 102.923 88.4645 102.709C86.4655 102.515 85.8139 102.033 85.6109 100.598C85.1083 97.0449 88.9171 94.9691 91.1006 97.605Z" fill="white"/>
</svg>
